<svg width="28" height="28" viewBox="0 0 28 28" fill="none" xmlns="http://www.w3.org/2000/svg">
<path d="M11.3071 8.82031H16.6919V7C16.6918 6.82765 16.6041 6.46223 16.2505 6.13477C15.9087 5.81831 15.2474 5.47461 13.9995 5.47461C12.7518 5.47465 12.0903 5.81833 11.7485 6.13477C11.3951 6.46217 11.3072 6.82769 11.3071 7V8.82031ZM7.58838 20.6611C7.58841 20.8627 7.66923 21.0576 7.81494 21.2021C7.96089 21.3469 8.16044 21.4296 8.36963 21.4297H19.4927C19.7019 21.4297 19.9014 21.3469 20.0474 21.2021C20.1931 21.0576 20.2739 20.8628 20.2739 20.6611V10.4355H18.3071V12.833H16.6919V10.4355H11.3071V12.833H9.69189V10.4355H7.58838V20.6611ZM18.3071 8.82031H21.0815C21.1095 8.82031 21.1373 8.82145 21.1646 8.82422C21.5717 8.86565 21.8892 9.20979 21.8892 9.62793V20.6611C21.8891 21.2953 21.6351 21.9021 21.1851 22.3486C20.7351 22.7949 20.1261 23.0449 19.4927 23.0449H8.36963C7.73621 23.0448 7.12712 22.7949 6.67725 22.3486C6.2273 21.9021 5.97318 21.2953 5.97314 20.6611V9.62793C5.97314 9.20962 6.29129 8.86541 6.69873 8.82422C6.7257 8.82149 6.75308 8.82032 6.78076 8.82031H9.69189V7C9.69199 6.39456 9.95511 5.5936 10.6509 4.94922C11.3591 4.29357 12.4477 3.85942 13.9995 3.85938C15.5514 3.85938 16.6399 4.29354 17.3481 4.94922C18.0441 5.59364 18.307 6.39449 18.3071 7V8.82031Z" fill="#383838"/>
</svg>
