<svg width="202" height="40" viewBox="0 0 202 40" fill="none" xmlns="http://www.w3.org/2000/svg">
<path d="M3.67346 22.0881L3.67346 17.9097H7.85192V22.0881H3.67346Z" fill="#383838"/>
<path d="M30.5749 35.8215C34.927 35.8215 38.8834 34.0411 41.7519 31.1771C44.6137 28.3108 46.3963 24.3522 46.3963 19.9979C46.3963 15.6436 44.6137 11.6915 41.7519 8.82302C38.8834 5.95899 34.9292 4.17861 30.5749 4.17861L17.3976 4.17861V0.00234222L30.5749 0.00234222C36.0722 0.00234222 41.0704 2.25313 44.7016 5.88208C48.324 9.50444 50.5726 14.5028 50.5726 20C50.5726 25.4973 48.324 30.4957 44.6928 34.1268C41.0617 37.758 36.0722 40 30.5749 40H8.4187V35.8215H30.5749Z" fill="#383838"/>
<path d="M6.70618 31.0428V26.8643H10.8824V31.0428H6.70618Z" fill="#383838"/>
<path d="M0 39.9998L0 35.8213H4.17846V39.9998H0Z" fill="#383838"/>
<path d="M17.3734 13.1332V8.95465H21.5518V13.1332H17.3734Z" fill="#383838"/>
<path d="M8.97644 4.17841V0L13.1549 0V4.17841H8.97644Z" fill="#383838"/>
<path d="M30.2931 17.9096C31.447 17.9096 32.3812 18.8459 32.3812 19.9977C32.3812 21.1495 31.4448 22.0859 30.2931 22.0859H12.0889V17.9073H30.2931V17.9096Z" fill="#383838"/>
<path d="M30.2961 13.1332H25.7945V8.95465H27.3749C27.7661 8.95465 27.8914 8.95465 27.887 8.95465L30.2983 8.95465C33.3359 8.95465 36.0989 10.1988 38.0991 12.2078C40.0993 14.208 41.3412 16.9687 41.3412 19.9998C41.3412 23.0309 40.0993 25.7916 38.0991 27.8028C36.1011 29.8008 33.3381 31.0449 30.2983 31.0449H15.1296V26.8642C21.7018 26.8686 23.7261 26.8642 30.2983 26.8642C32.182 26.8642 33.8986 26.0906 35.1493 24.8509C36.3912 23.6068 37.1649 21.8879 37.1649 19.9976C37.1649 18.1073 36.389 16.3928 35.1449 15.1531C33.8986 13.9069 32.182 13.1353 30.2983 13.1353L30.2961 13.1332Z" fill="#383838"/>
<path d="M186.514 28.4685V11.5315H192.55C195.349 11.5315 197.496 12.271 198.99 13.75C200.501 15.2131 201.257 17.3044 201.257 20.0239C201.257 22.7274 200.517 24.8108 199.038 26.2739C197.559 27.737 195.444 28.4685 192.693 28.4685H186.514ZM190.665 25.0811H192.55C194.076 25.0811 195.197 24.6676 195.913 23.8406C196.629 23.0137 196.987 21.7335 196.987 20C196.987 18.2665 196.629 16.9863 195.913 16.1593C195.197 15.3324 194.076 14.9189 192.55 14.9189H190.665V25.0811Z" fill="#383838"/>
<path d="M178.902 28.8502C176.739 28.8502 175.069 28.3572 173.893 27.3712C172.716 26.3852 172.088 25.0255 172.008 23.292L176.23 23.1489C176.31 23.9281 176.572 24.5086 177.018 24.8903C177.479 25.272 178.107 25.4628 178.902 25.4628C179.427 25.4628 179.88 25.3833 180.262 25.2243C180.659 25.0493 180.97 24.8108 181.192 24.5086C181.415 24.1905 181.526 23.8089 181.526 23.3636C181.526 22.6479 181.28 22.1072 180.787 21.7414C180.294 21.3756 179.618 21.1928 178.759 21.1928H177.185V18.2825H178.759C179.395 18.2825 179.928 18.1393 180.357 17.8531C180.787 17.5668 181.001 17.0977 181.001 16.4456C181.001 15.8731 180.826 15.4119 180.477 15.062C180.143 14.7122 179.594 14.5372 178.831 14.5372C178.051 14.5372 177.471 14.7042 177.089 15.0382C176.707 15.3721 176.469 15.7856 176.373 16.2786L172.199 16.0639C172.374 14.569 173.034 13.3763 174.179 12.4857C175.34 11.5951 176.89 11.1498 178.831 11.1498C180.23 11.1498 181.407 11.3486 182.361 11.7462C183.315 12.1279 184.031 12.6765 184.508 13.3922C185.001 14.1078 185.248 14.9666 185.248 15.9685C185.248 16.9545 184.914 17.7735 184.246 18.4256C183.578 19.0776 182.639 19.515 181.431 19.7376V19.3559C182.846 19.5786 183.928 20.0636 184.675 20.8111C185.422 21.5585 185.796 22.5207 185.796 23.6975C185.796 24.779 185.518 25.7014 184.961 26.4647C184.405 27.2281 183.609 27.8165 182.576 28.23C181.542 28.6435 180.317 28.8502 178.902 28.8502Z" fill="#383838"/>
<path d="M154.337 28.4685V11.5315H162.09C163.346 11.5315 164.436 11.7382 165.358 12.1517C166.297 12.5652 167.02 13.1536 167.529 13.917C168.038 14.6644 168.292 15.5471 168.292 16.5649C168.292 17.36 168.133 18.0598 167.815 18.6641C167.497 19.2684 167.052 19.7694 166.479 20.167C165.923 20.5487 165.255 20.8031 164.476 20.9303L164.404 20.6918C165.565 20.6918 166.44 20.9383 167.028 21.4313C167.632 21.9243 167.966 22.6638 168.03 23.6498L168.436 28.4685H164.189L163.927 24.3416C163.879 23.7055 163.688 23.2363 163.354 22.9342C163.036 22.632 162.472 22.4809 161.661 22.4809H158.488V28.4685H154.337ZM158.488 19.0935H161.446C162.289 19.0935 162.933 18.9106 163.378 18.5448C163.824 18.1791 164.046 17.6622 164.046 16.9943C164.046 16.3104 163.816 15.7936 163.354 15.4437C162.909 15.0938 162.257 14.9189 161.398 14.9189H158.488V19.0935Z" fill="#383838"/>
<path d="M145.829 28.8502C144.366 28.8502 143.094 28.5878 142.012 28.063C140.947 27.5223 140.12 26.7589 139.531 25.7729C138.943 24.7869 138.649 23.626 138.649 22.2901V11.5077H142.8V22.2901C142.8 23.292 143.054 24.0713 143.563 24.6279C144.088 25.1845 144.843 25.4628 145.829 25.4628C146.815 25.4628 147.563 25.1845 148.071 24.6279C148.596 24.0713 148.859 23.292 148.859 22.2901V11.5077H153.009V22.2901C153.009 23.626 152.715 24.7869 152.127 25.7729C151.538 26.7589 150.703 27.5223 149.622 28.063C148.557 28.5878 147.292 28.8502 145.829 28.8502Z" fill="#383838"/>
<path d="M127.613 28.4685V11.5315H131.764V27.4905L129.426 25.0811H139.35V28.4685H127.613Z" fill="#383838"/>
<path d="M114.542 28.4685V11.5315H126.708V14.9189H118.693V18.2824H126.422V21.6698H118.693V25.0811H126.899V28.4685H114.542Z" fill="#383838"/>
<path d="M99.5145 28.4685V11.5315H105.55C108.349 11.5315 110.496 12.271 111.991 13.75C113.501 15.2131 114.257 17.3044 114.257 20.0239C114.257 22.7274 113.517 24.8108 112.038 26.2739C110.559 27.737 108.444 28.4685 105.693 28.4685H99.5145ZM103.665 25.0811H105.55C107.077 25.0811 108.198 24.6676 108.913 23.8406C109.629 23.0137 109.987 21.7335 109.987 20C109.987 18.2665 109.629 16.9863 108.913 16.1593C108.198 15.3324 107.077 14.9189 105.55 14.9189H103.665V25.0811Z" fill="#383838"/>
<path d="M90.7958 28.8502C89.0464 28.8502 87.5356 28.4924 86.2634 27.7767C85.007 27.0611 84.0448 26.0433 83.3769 24.7233C82.709 23.4033 82.375 21.8368 82.375 20.0239C82.375 18.2109 82.709 16.6444 83.3769 15.3244C84.0448 13.9886 85.007 12.9628 86.2634 12.2471C87.5356 11.5156 89.0464 11.1498 90.7958 11.1498C92.5611 11.1498 94.0639 11.5156 95.3044 12.2471C96.5608 12.9628 97.5229 13.9886 98.1909 15.3244C98.8747 16.6444 99.2166 18.2109 99.2166 20.0239C99.2166 21.8368 98.8747 23.4033 98.1909 24.7233C97.5229 26.0433 96.5608 27.0611 95.3044 27.7767C94.0639 28.4924 92.5611 28.8502 90.7958 28.8502ZM90.7958 25.4628C91.6705 25.4628 92.41 25.2481 93.0143 24.8187C93.6346 24.3893 94.1116 23.7691 94.4456 22.958C94.7796 22.147 94.9466 21.1689 94.9466 20.0239C94.9466 18.8788 94.7796 17.9008 94.4456 17.0897C94.1116 16.2627 93.6346 15.6345 93.0143 15.2052C92.3941 14.7599 91.6466 14.5372 90.772 14.5372C89.9132 14.5372 89.1737 14.7599 88.5534 15.2052C87.9332 15.6345 87.4561 16.2627 87.1221 17.0897C86.8041 17.9008 86.645 18.8788 86.645 20.0239C86.645 21.1689 86.8041 22.147 87.1221 22.958C87.4561 23.7691 87.9332 24.3893 88.5534 24.8187C89.1737 25.2481 89.9211 25.4628 90.7958 25.4628Z" fill="#383838"/>
<path d="M63.2158 28.4685V11.5315H68.7025L72.6624 23.0773L76.5985 11.5315H82.0851V28.4685H77.9343V18.2109L74.2368 28.4208H71.0403L67.3666 18.2109V28.4685H63.2158Z" fill="#383838"/>
</svg>
