<svg width="24" height="24" viewBox="0 0 24 24" fill="none" xmlns="http://www.w3.org/2000/svg">
<path d="M9.52051 7.20996H15.2559V5.25781C15.2558 5.06609 15.1593 4.67125 14.7793 4.31934C14.4112 3.97854 13.7056 3.61527 12.3877 3.61523C11.0702 3.61531 10.3652 3.97863 9.99707 4.31934C9.61698 4.67127 9.52055 5.06608 9.52051 5.25781V7.20996ZM5.61523 19.6025C5.61523 19.825 5.70466 20.0408 5.86523 20.2002C6.02611 20.3596 6.24634 20.4501 6.47656 20.4502H18.1553C18.3856 20.4502 18.6057 20.3597 18.7666 20.2002C18.9273 20.0408 19.0166 19.8251 19.0166 19.6025V8.8252H16.8711V11.3828H15.2559V8.8252H9.52051V11.3828H7.90527V8.8252H5.61523V19.6025ZM16.8711 7.20996H19.8242C20.2702 7.20996 20.6317 7.57163 20.6318 8.01758V19.6025C20.6318 20.2578 20.3694 20.8853 19.9043 21.3467C19.4394 21.8078 18.8099 22.0654 18.1553 22.0654H6.47656C5.82201 22.0654 5.19237 21.8077 4.72754 21.3467C4.26259 20.8854 4 20.2577 4 19.6025V8.01758C4.00015 7.57169 4.36171 7.21006 4.80762 7.20996H7.90527V5.25781C7.90531 4.63281 8.17708 3.80262 8.89941 3.13379C9.63385 2.45391 10.766 2.00007 12.3877 2C14.0097 2.00004 15.1425 2.45374 15.877 3.13379C16.5993 3.80261 16.8711 4.63282 16.8711 5.25781V7.20996Z" fill="currentColor"/>
</svg>
