<svg width="79" height="24" viewBox="0 0 79 24" fill="none" xmlns="http://www.w3.org/2000/svg">
<path d="M18 5.44223C18 5.44223 20 4.43872 21.241 5.45474C21.443 5.61811 21.6952 5.94149 21.8059 6.17921C22 6.59602 22 7.00021 22 7.80858V18.8175C22 19.824 20.96 20.5153 20 20.2906C19.0803 20.0753 18.0659 19.956 17 19.956C15.0829 19.956 13.3325 20.342 12 20.978C10.6675 21.6141 8.91707 22 7 22C5.93408 22 4.91969 21.8807 4 21.6654C3.4088 21.527 3.11319 21.4578 2.75898 21.1714C2.55696 21.008 2.30483 20.6846 2.19412 20.4469C2 20.0301 2 19.6259 2 18.8175V7.80858C2 6.80209 3.04003 6.1108 4 6.33551C4.77473 6.51687 5.61667 6.63012 6.5 6.66131" stroke="#383838" stroke-width="1.7" stroke-linecap="round"/>
<path d="M14.5 13.5C14.5 14.8807 13.3807 16 12 16C10.6193 16 9.5 14.8807 9.5 13.5C9.5 12.1193 10.6193 11 12 11C13.3807 11 14.5 12.1193 14.5 13.5Z" stroke="#383838" stroke-width="1.7"/>
<path d="M5.5 14.5L5.5 14.509" stroke="#383838" stroke-width="2" stroke-linecap="round" stroke-linejoin="round"/>
<path d="M18.5 12.4922L18.5 12.5012" stroke="#383838" stroke-width="2" stroke-linecap="round" stroke-linejoin="round"/>
<path d="M9.5 5.5C9.99153 6.0057 11.2998 8 12 8M14.5 5.5C14.0085 6.0057 12.7002 8 12 8M12 8V2" stroke="#383838" stroke-width="1.7" stroke-linecap="round" stroke-linejoin="round"/>
<path d="M36.711 17.21C35.9737 17.21 35.3087 17.0817 34.716 16.825C34.128 16.5683 33.6427 16.202 33.26 15.726C32.882 15.2453 32.6417 14.676 32.539 14.018L34.289 13.752C34.4383 14.3493 34.744 14.8113 35.206 15.138C35.6727 15.4647 36.2093 15.628 36.816 15.628C37.1753 15.628 37.5137 15.572 37.831 15.46C38.1483 15.348 38.405 15.1847 38.601 14.97C38.8017 14.7553 38.902 14.4917 38.902 14.179C38.902 14.039 38.8787 13.9107 38.832 13.794C38.7853 13.6727 38.7153 13.5653 38.622 13.472C38.5333 13.3787 38.4167 13.2947 38.272 13.22C38.132 13.1407 37.9687 13.073 37.782 13.017L35.178 12.247C34.954 12.1817 34.7113 12.0953 34.45 11.988C34.1933 11.876 33.9483 11.7243 33.715 11.533C33.4863 11.337 33.2973 11.0897 33.148 10.791C33.0033 10.4877 32.931 10.1143 32.931 9.671C32.931 9.02233 33.0943 8.47867 33.421 8.04C33.7523 7.59667 34.1957 7.26533 34.751 7.046C35.311 6.82667 35.9317 6.71933 36.613 6.724C37.3037 6.72867 37.9197 6.84767 38.461 7.081C39.0023 7.30967 39.455 7.64333 39.819 8.082C40.183 8.52067 40.4397 9.05033 40.589 9.671L38.776 9.986C38.7013 9.63133 38.5567 9.33033 38.342 9.083C38.132 8.831 37.873 8.63967 37.565 8.509C37.2617 8.37833 36.9373 8.30833 36.592 8.299C36.256 8.29433 35.9433 8.34567 35.654 8.453C35.3693 8.55567 35.1383 8.705 34.961 8.901C34.7883 9.097 34.702 9.32567 34.702 9.587C34.702 9.83433 34.7767 10.0373 34.926 10.196C35.0753 10.35 35.2597 10.4737 35.479 10.567C35.703 10.6557 35.9293 10.7303 36.158 10.791L37.964 11.295C38.2113 11.3603 38.489 11.449 38.797 11.561C39.105 11.673 39.4013 11.8293 39.686 12.03C39.9707 12.2307 40.204 12.4943 40.386 12.821C40.5727 13.1477 40.666 13.563 40.666 14.067C40.666 14.5897 40.5563 15.0493 40.337 15.446C40.1223 15.838 39.8307 16.1647 39.462 16.426C39.0933 16.6873 38.671 16.8833 38.195 17.014C37.7237 17.1447 37.229 17.21 36.711 17.21ZM45.6182 17.21C44.8528 17.21 44.1808 17.0443 43.6022 16.713C43.0235 16.3817 42.5708 15.922 42.2442 15.334C41.9222 14.746 41.7612 14.0693 41.7612 13.304C41.7612 12.478 41.9198 11.7617 42.2372 11.155C42.5545 10.5437 42.9955 10.07 43.5602 9.734C44.1248 9.398 44.7782 9.23 45.5202 9.23C46.3042 9.23 46.9692 9.41433 47.5152 9.783C48.0658 10.147 48.4742 10.6627 48.7402 11.33C49.0062 11.9973 49.1065 12.7837 49.0412 13.689H47.3682V13.073C47.3635 12.2517 47.2188 11.652 46.9342 11.274C46.6495 10.896 46.2015 10.707 45.5902 10.707C44.8995 10.707 44.3862 10.9217 44.0502 11.351C43.7142 11.7757 43.5462 12.3987 43.5462 13.22C43.5462 13.9853 43.7142 14.578 44.0502 14.998C44.3862 15.418 44.8762 15.628 45.5202 15.628C45.9355 15.628 46.2925 15.537 46.5912 15.355C46.8945 15.1683 47.1278 14.9 47.2912 14.55L48.9572 15.054C48.6678 15.7353 48.2198 16.265 47.6132 16.643C47.0112 17.021 46.3462 17.21 45.6182 17.21ZM43.0142 13.689V12.415H48.2152V13.689H43.0142ZM50.743 17V6.71H52.43V17H50.743ZM54.6669 17V6.71H56.3539V17H54.6669ZM64.1374 17.189C63.6334 17.189 63.1574 17.091 62.7094 16.895C62.2614 16.699 61.8718 16.4213 61.5404 16.062C61.2138 15.7027 60.9781 15.278 60.8334 14.788L62.4644 14.347C62.5811 14.7483 62.7934 15.0587 63.1014 15.278C63.4141 15.4927 63.7571 15.5977 64.1304 15.593C64.4618 15.593 64.7581 15.516 65.0194 15.362C65.2808 15.208 65.4861 15.0003 65.6354 14.739C65.7848 14.473 65.8594 14.1767 65.8594 13.85C65.8594 13.3507 65.6984 12.933 65.3764 12.597C65.0544 12.261 64.6391 12.093 64.1304 12.093C63.9764 12.093 63.8248 12.114 63.6754 12.156C63.5308 12.198 63.3908 12.2563 63.2554 12.331L62.4854 11.001L65.8734 8.103L66.0204 8.509H61.2254V6.92H67.4064V8.516L64.6834 11.134L64.6694 10.637C65.2808 10.679 65.8011 10.8493 66.2304 11.148C66.6644 11.4467 66.9958 11.8317 67.2244 12.303C67.4578 12.7743 67.5744 13.29 67.5744 13.85C67.5744 14.4847 67.4181 15.054 67.1054 15.558C66.7974 16.062 66.3821 16.461 65.8594 16.755C65.3414 17.0443 64.7674 17.189 64.1374 17.189ZM69.3882 17V6.92H72.6012C72.6852 6.92 72.8509 6.92233 73.0982 6.927C73.3502 6.93167 73.5929 6.948 73.8262 6.976C74.6242 7.07867 75.2985 7.36333 75.8492 7.83C76.4045 8.292 76.8245 8.88233 77.1092 9.601C77.3939 10.3197 77.5362 11.106 77.5362 11.96C77.5362 12.814 77.3939 13.6003 77.1092 14.319C76.8245 15.0377 76.4045 15.6303 75.8492 16.097C75.2985 16.559 74.6242 16.8413 73.8262 16.944C73.5975 16.972 73.3572 16.9883 73.1052 16.993C72.8532 16.9977 72.6852 17 72.6012 17H69.3882ZM71.1032 15.411H72.6012C72.7412 15.411 72.9185 15.4063 73.1332 15.397C73.3525 15.3877 73.5462 15.3667 73.7142 15.334C74.1902 15.2453 74.5775 15.033 74.8762 14.697C75.1749 14.361 75.3942 13.9527 75.5342 13.472C75.6789 12.9913 75.7512 12.4873 75.7512 11.96C75.7512 11.414 75.6789 10.9007 75.5342 10.42C75.3895 9.93933 75.1655 9.53567 74.8622 9.209C74.5635 8.88233 74.1809 8.67467 73.7142 8.586C73.5462 8.54867 73.3525 8.52767 73.1332 8.523C72.9185 8.51367 72.7412 8.509 72.6012 8.509H71.1032V15.411Z" fill="#383838"/>
</svg>
