<svg width="24" height="24" viewBox="0 0 24 24" fill="none" xmlns="http://www.w3.org/2000/svg">
<path d="M18 5.44223C18 5.44223 20 4.43872 21.241 5.45474C21.443 5.61811 21.6952 5.94149 21.8059 6.17921C22 6.59602 22 7.00021 22 7.80858V18.8175C22 19.824 20.96 20.5153 20 20.2906C19.0803 20.0753 18.0659 19.956 17 19.956C15.0829 19.956 13.3325 20.342 12 20.978C10.6675 21.6141 8.91707 22 7 22C5.93408 22 4.91969 21.8807 4 21.6654C3.4088 21.527 3.11319 21.4578 2.75898 21.1714C2.55696 21.008 2.30483 20.6846 2.19412 20.4469C2 20.0301 2 19.6259 2 18.8175V7.80858C2 6.80209 3.04003 6.1108 4 6.33551C4.77473 6.51687 5.61667 6.63012 6.5 6.66131" stroke="currentColor" stroke-width="1.7" stroke-linecap="round"/>
<path d="M14.5 13.5C14.5 14.8807 13.3807 16 12 16C10.6193 16 9.5 14.8807 9.5 13.5C9.5 12.1193 10.6193 11 12 11C13.3807 11 14.5 12.1193 14.5 13.5Z" stroke="currentColor" stroke-width="1.7"/>
<path d="M5.5 14.5L5.5 14.509" stroke="currentColor" stroke-width="2" stroke-linecap="round" stroke-linejoin="round"/>
<path d="M18.5 12.4922L18.5 12.5012" stroke="currentColor" stroke-width="2" stroke-linecap="round" stroke-linejoin="round"/>
<path d="M9.5 5.5C9.99153 6.0057 11.2998 8 12 8M14.5 5.5C14.0085 6.0057 12.7002 8 12 8M12 8V2" stroke="currentColor" stroke-width="1.7" stroke-linecap="round" stroke-linejoin="round"/>
</svg>
